<?xml version="1.0" encoding="UTF-8"?>
<svg id="Layer_1" data-name="Layer 1" xmlns="http://www.w3.org/2000/svg" viewBox="0 0 170.08 56.69">
  <defs>
    <style>
      .cls-1 {
        fill: #fff;
      }
    </style>
  </defs>
  <g>
    <path class="cls-1" d="M121.74,45.41h6.11v1.67h-4.25v7.92h4.25v1.63h-6.11v-11.22ZM129.52,56.69v-11.34h1.69v11.34h-1.69Z"/>
    <path class="cls-1" d="M136.4,50.16h7.18v1.62h-3.5v3.32h4.25v1.59h-10.31v-1.59h4.25v-3.32h-3.51v-6.42h1.63v4.81Z"/>
    <path class="cls-1" d="M157.04,55.1v1.59h-10.31v-1.59h10.31ZM147.21,52.49v-7.13h1.86v2.43h5.63v-2.43h1.86v7.13h-9.35ZM154.7,50.86v-1.45h-5.63v1.45h5.63Z"/>
  </g>
  <g>
    <path class="cls-1" d="M118.58,0c-9.49,0-17.18,7.61-17.18,17.01s7.69,17.01,17.18,17.01,17.18-7.61,17.18-17.01S128.07,0,118.58,0ZM118.58,26.57c-5.28,0-9.56-4.28-9.56-9.56s4.28-9.56,9.56-9.56,9.56,4.28,9.56,9.56-4.28,9.56-9.56,9.56Z"/>
    <path class="cls-1" d="M7.79,25.81h5.04c4.85,0,8.8-3.95,8.8-8.8s-3.95-8.8-8.8-8.8H0V.41h12.83c9.17,0,16.6,7.43,16.6,16.6h0c0,9.17-7.43,16.6-16.6,16.6H0v-13.14l7.79-11.91v17.26Z"/>
    <polygon class="cls-1" points="87.59 .41 87.59 19.66 75.08 .41 67.29 .41 67.29 33.61 75.08 33.61 75.08 14.36 87.59 33.61 95.38 33.61 95.38 .41 87.59 .41"/>
    <polygon class="cls-1" points="61.98 .41 53.24 .41 45.9 12.69 38.55 .41 29.81 .41 42 20.79 42 33.61 49.79 33.61 49.79 20.79 61.98 .41"/>
    <polygon class="cls-1" points="161.94 .41 153.56 22.23 145.19 .41 137.05 .41 149.79 33.61 157.34 33.61 170.08 .41 161.94 .41"/>
  </g>
  <path class="cls-1" d="M165.52,46.46c-2.52,0-4.56,2.04-4.56,4.56s2.04,4.56,4.56,4.56,4.56-2.04,4.56-4.56-2.04-4.56-4.56-4.56ZM165.67,52.9h-1.45v-1.48l.88-1.35v1.95h.57c.55,0,.99-.45.99-.99s-.45-.99-.99-.99h-1.45v-.88h1.45c1.04,0,1.87.84,1.87,1.87s-.84,1.87-1.87,1.87Z"/>
</svg>