<?xml version="1.0" encoding="UTF-8"?>
<svg id="Layer_1" data-name="Layer 1" xmlns="http://www.w3.org/2000/svg" viewBox="0 0 359.56 19.29">
  <path d="M349.91,0c-5.33,0-9.64,4.32-9.64,9.64s4.32,9.64,9.64,9.64,9.64-4.32,9.64-9.64-4.32-9.64-9.64-9.64ZM350.24,13.61h-3.07v-3.14l1.86-2.85v4.12h1.2c1.16,0,2.1-.94,2.1-2.1s-.94-2.1-2.1-2.1h-3.07v-1.86h3.07c2.19,0,3.97,1.78,3.97,3.97s-1.78,3.97-3.97,3.97Z"/>
  <g>
    <path d="M0,1.78h2.92c2.3,0,4.11.56,5.42,1.68,1.31,1.12,1.97,2.66,1.97,4.62s-.63,3.63-1.9,4.8c-1.27,1.16-3,1.75-5.21,1.75H0V1.78ZM2.37,12.41h.83c1.51,0,2.68-.37,3.5-1.1s1.23-1.77,1.23-3.11-.43-2.38-1.31-3.12-2.11-1.1-3.71-1.1h-.55v8.42Z"/>
    <path d="M27.55,14.94c-1.39,0-2.58-.5-3.56-1.5-.98-1-1.47-2.21-1.47-3.63s.49-2.64,1.47-3.64c.98-1,2.17-1.5,3.56-1.5s2.58.5,3.57,1.5c.98,1,1.47,2.22,1.47,3.64,0,.34-.03.68-.08,1.02h-7.51c.13.42.35.8.65,1.14.53.58,1.18.87,1.97.87.49,0,.93-.11,1.34-.34.4-.23.7-.53.89-.91h2.44c-.31,1.02-.9,1.84-1.76,2.45-.86.61-1.85.91-2.98.91ZM30.17,8.98c-.11-.51-.34-.95-.69-1.33-.52-.58-1.16-.87-1.93-.87s-1.41.29-1.93.87c-.33.38-.57.83-.7,1.33h5.25Z"/>
    <path d="M48.84,7.59c-.06-.27-.16-.48-.32-.61-.16-.14-.36-.2-.61-.2-.27,0-.48.08-.65.23-.17.15-.25.35-.25.59s.1.42.31.56c.21.14.61.3,1.2.48,1.01.31,1.74.7,2.17,1.16.43.46.64,1.08.64,1.85,0,.97-.32,1.76-.96,2.37-.64.61-1.46.92-2.46.92s-1.85-.31-2.51-.93c-.66-.62-1.01-1.43-1.06-2.43h2.37c.07.41.21.72.42.93s.48.32.81.32c.32,0,.58-.09.78-.26.2-.17.31-.4.31-.68,0-.3-.09-.53-.28-.7-.19-.16-.55-.33-1.08-.49-1.07-.33-1.84-.72-2.3-1.19-.46-.46-.69-1.06-.69-1.81,0-.89.3-1.62.92-2.19.61-.57,1.39-.85,2.35-.85.84,0,1.56.28,2.15.84.6.56.93,1.25.98,2.09h-2.26Z"/>
    <path d="M63.51,1.78h2.31v2.12h-2.31V1.78ZM63.51,4.99h2.31v9.63h-2.31V4.99Z"/>
    <path d="M83.31,16.44c.91,0,1.65-.31,2.22-.92.5-.54.78-1.22.84-2.04-.95.98-2.07,1.48-3.38,1.48s-2.43-.5-3.36-1.5c-.93-1-1.39-2.21-1.39-3.63s.46-2.64,1.39-3.64c.93-1,2.05-1.5,3.37-1.5,1.28,0,2.37.46,3.26,1.4v-1.08h2.24v7.83c0,1.73-.48,3.12-1.45,4.16-.96,1.05-2.24,1.57-3.84,1.57-1.15,0-2.16-.29-3.03-.87s-1.45-1.35-1.74-2.32h2.69c.16.33.44.59.84.78.39.19.84.29,1.34.29ZM83.37,6.76c-.8,0-1.46.29-2,.88-.54.59-.81,1.31-.81,2.18s.27,1.58.81,2.16c.54.58,1.2.87,1.99.87s1.46-.29,2-.87c.54-.58.81-1.31.81-2.17s-.27-1.59-.81-2.17c-.54-.58-1.2-.87-2-.87Z"/>
    <path d="M101.01,4.99h2.15v.83c.75-.77,1.64-1.15,2.68-1.15,1.14,0,2.05.39,2.72,1.16.67.77,1,1.81,1,3.13v5.67h-2.31v-5.16c0-.88-.16-1.55-.49-2.01-.33-.46-.81-.69-1.43-.69-.67,0-1.17.23-1.5.7s-.5,1.16-.5,2.09v5.07h-2.32V4.99Z"/>
    <path d="M126.08,10.24h-3.78v-1.19h3.78v-3.78h1.19v3.78h3.78v1.19h-3.78v3.78h-1.19v-3.78Z"/>
    <path d="M144.11,1.78h2.37v12.85h-2.37V1.78Z"/>
    <path d="M159.58,4.99h2.15v.83c.75-.77,1.64-1.15,2.68-1.15,1.14,0,2.05.39,2.72,1.16.67.77,1,1.81,1,3.13v5.67h-2.31v-5.16c0-.88-.16-1.55-.49-2.01-.33-.46-.81-.69-1.43-.69-.67,0-1.17.23-1.5.7s-.5,1.16-.5,2.09v5.07h-2.32V4.99Z"/>
    <path d="M180.92,4.99h2.15v.83c.75-.77,1.64-1.15,2.68-1.15,1.14,0,2.05.39,2.72,1.16.67.77,1,1.81,1,3.13v5.67h-2.31v-5.16c0-.88-.16-1.55-.49-2.01-.33-.46-.81-.69-1.43-.69-.67,0-1.17.23-1.5.7s-.5,1.16-.5,2.09v5.07h-2.32V4.99Z"/>
    <path d="M203.26,13.45c-1-1-1.5-2.21-1.5-3.63s.5-2.64,1.5-3.64c1-1,2.21-1.5,3.62-1.5s2.64.5,3.63,1.5c1,1,1.5,2.22,1.5,3.64s-.5,2.64-1.5,3.63-2.21,1.5-3.63,1.5-2.63-.5-3.62-1.5ZM208.88,11.97c.54-.58.81-1.29.81-2.15s-.27-1.58-.81-2.16c-.54-.58-1.2-.87-2-.87s-1.46.29-1.99.87c-.54.58-.81,1.3-.81,2.16s.27,1.58.81,2.15c.54.58,1.2.87,1.99.87s1.46-.29,2-.87Z"/>
    <path d="M223.42,4.99h2.45l2.36,6.65h0l2.35-6.65h2.45l-3.89,9.63h-1.83l-3.88-9.63Z"/>
    <path d="M249.26,14.94c-1.32,0-2.45-.5-3.38-1.5s-1.4-2.21-1.4-3.63.47-2.64,1.4-3.64c.93-1,2.06-1.5,3.39-1.5s2.37.46,3.26,1.38v-1.06h2.13v9.63h-2.13v-1.05c-.9.91-2,1.37-3.27,1.37ZM249.64,6.76c-.81,0-1.48.29-2.03.88-.54.59-.81,1.31-.81,2.18s.27,1.58.81,2.16c.54.58,1.22.87,2.02.87s1.49-.29,2.03-.87c.55-.58.82-1.31.82-2.17s-.27-1.59-.81-2.17c-.54-.58-1.22-.87-2.03-.87Z"/>
    <path d="M267.88,14.62v-7.6h-1.11v-2.03h1.11V1.76h2.32v3.23h1.4v2.03h-1.4v7.6h-2.32Z"/>
    <path d="M283.45,1.78h2.31v2.12h-2.31V1.78ZM283.45,4.99h2.31v9.63h-2.31V4.99Z"/>
    <path d="M299.55,13.45c-1-1-1.5-2.21-1.5-3.63s.5-2.64,1.5-3.64c1-1,2.21-1.5,3.62-1.5s2.64.5,3.63,1.5c1,1,1.5,2.22,1.5,3.64s-.5,2.64-1.5,3.63-2.21,1.5-3.63,1.5-2.63-.5-3.62-1.5ZM305.18,11.97c.54-.58.81-1.29.81-2.15s-.27-1.58-.81-2.16c-.54-.58-1.2-.87-2-.87s-1.46.29-1.99.87c-.54.58-.81,1.3-.81,2.16s.27,1.58.81,2.15c.54.58,1.2.87,1.99.87s1.46-.29,2-.87Z"/>
    <path d="M320.6,4.99h2.15v.83c.75-.77,1.64-1.15,2.68-1.15,1.14,0,2.05.39,2.72,1.16.67.77,1,1.81,1,3.13v5.67h-2.31v-5.16c0-.88-.16-1.55-.49-2.01-.33-.46-.81-.69-1.43-.69-.67,0-1.17.23-1.5.7s-.5,1.16-.5,2.09v5.07h-2.32V4.99Z"/>
  </g>
</svg>